Coordinates
version=1
nRows=29
nColumns=24
inDegrees=yes

Units are S.I. units (second, meters, Newtons, ...)
Angles are in degrees.

endheader
time	pelvis_tilt	pelvis_list	pelvis_rotation	pelvis_tx	pelvis_ty	pelvis_tz	hip_flexion_r	hip_adduction_r	hip_rotation_r	knee_angle_r	ankle_angle_r	subtalar_angle_r	mtp_angle_r	hip_flexion_l	hip_adduction_l	hip_rotation_l	knee_angle_l	ankle_angle_l	subtalar_angle_l	mtp_angle_l	lumbar_extension	lumbar_bending	lumbar_rotation
      2.05500000	      0.99821649	      9.22364277	     -4.97475764	     -0.70130653	      0.97325565	     -0.00445840	     -3.14357487	     -8.94939104	    -11.46400249	    -20.98575388	     16.72910846	      2.75801606	      1.49241767	     18.13859265	      9.43088268	    -25.36838231	      0.74563943	     -2.30778567	     15.27026993	     36.48004765	    -14.69074178	    -11.32299927	     37.04475421
      2.06000000	      1.28716178	      9.27156296	     -5.07531823	     -0.69636714	      0.97322757	     -0.00455933	     -3.73693661	     -9.06633022	    -11.42224919	    -21.02218710	     16.74811062	      2.70812830	      1.55800371	     17.99653431	      9.44624334	    -25.25326302	      0.03013338	     -2.30841510	     14.47091822	     36.49379062	    -15.01117615	    -11.45589752	     36.82603342
      2.06500000	      1.62838570	      9.32394843	     -5.04705629	     -0.69117108	      0.97330968	     -0.00486842	     -4.47987021	     -9.19963066	    -11.65102790	    -20.97816146	     16.73207547	      2.84058324	      1.91100647	     17.76389755	      9.52202456	    -24.95255629	     -0.67738778	     -2.32556086	     13.66878477	     36.78187039	    -15.39266293	    -11.56653630	     36.48123562
      2.07000000	      1.92406580	      9.38404832	     -5.06076903	     -0.68596130	      0.97336553	     -0.00514031	     -5.14497484	     -9.33142698	    -11.77132781	    -20.95993500	     16.66686737	      2.84998605	      2.39501705	     17.56382722	      9.59865480	    -24.64212991	     -1.34772259	     -2.46632278	     12.75386248	     37.14075061	    -15.71165700	    -11.68942600	     36.21535771
      2.07500000	      2.16482314	      9.45376522	     -5.06384770	     -0.68073212	      0.97337448	     -0.00543039	     -5.72394098	     -9.46827862	    -11.88181701	    -20.99091903	     16.52111655	      2.79462203	      2.89623516	     17.40890403	      9.68668808	    -24.25417656	     -1.99522692	     -2.64159731	     11.80482278	     37.49584680	    -15.96640239	    -11.82171393	     36.02766861
      2.08000000	      2.48015019	      9.56271075	     -5.07247418	     -0.67534246	      0.97353085	     -0.00574692	     -6.39863030	     -9.65617201	    -12.02490181	    -21.00049333	     16.26614063	      2.70662279	      4.14871164	     17.12983568	      9.84639192	    -23.95140870	     -2.54589459	     -3.01177144	     10.92487071	     38.43863208	    -16.29519612	    -11.99838617	     35.74144831
      2.08500000	      2.61463974	      9.60154154	     -5.11042448	     -0.67019856	      0.97346558	     -0.00602425	     -6.77006743	     -9.74935736	    -11.95304707	    -21.17148003	     16.13160689	      2.53344830	      4.33665481	     17.06613992	      9.89284497	    -23.53535657	     -3.13337668	     -3.27640005	     10.00242789	     38.47258365	    -16.43571199	    -12.09699155	     35.67401475
      2.09000000	      2.85251582	      9.70485272	     -5.03270359	     -0.66474424	      0.97359925	     -0.00650464	     -7.32853759	     -9.92858335	    -12.17995481	    -21.28468160	     15.82902076	      2.49149292	      5.89467117	     16.83691531	     10.07684736	    -23.07128207	     -3.63187538	     -3.69995272	      9.04353325	     39.52155960	    -16.69274001	    -12.24234809	     35.31504462
      2.09500000	      2.95436515	      9.80157029	     -5.08640784	     -0.65949045	      0.97356511	     -0.00680197	     -7.59142805	    -10.08937602	    -12.03093926	    -21.57839796	     15.63796458	      2.19761126	      6.01919492	     16.76824947	     10.19267243	    -22.71625126	     -4.13813755	     -3.95424076	      8.26821245	     39.51984500	    -16.78111334	    -12.40602237	     35.30173025
      2.10000000	      3.09898931	      9.86831579	     -5.00877680	     -0.65415454	      0.97366095	     -0.00736568	     -7.92140422	    -10.23476661	    -12.13066508	    -21.89667826	     15.13511278	      2.01887203	      8.14702934	     16.61544813	     10.33946178	    -22.14097157	     -4.57897797	     -4.43727148	      7.24930819	     40.77810110	    -16.94869932	    -12.49781438	     35.08365032
      2.10500000	      3.14734865	      9.95967720	     -4.95340635	     -0.64886955	      0.97366512	     -0.00789727	     -8.05919380	    -10.40269249	    -12.11975117	    -22.36189290	     14.86478824	      1.78185767	      8.56186757	     16.57667381	     10.48744560	    -21.66108303	     -5.05049690	     -4.78245651	      6.40084463	     40.86737258	    -17.00171616	    -12.61976088	     34.97232065
      2.11000000	      3.21425401	     10.04411199	     -4.96071457	     -0.64358296	      0.97375596	     -0.00836246	     -8.14048459	    -10.57823747	    -11.97216348	    -22.90969948	     14.26622859	      1.42433601	     10.55042446	     16.49347192	     10.61889810	    -21.26890035	     -5.46193841	     -5.20759731	      5.57450474	     41.75344285	    -17.07016694	    -12.74878811	     34.82532147
      2.11500000	      3.26810652	     10.13751263	     -4.95470619	     -0.63834999	      0.97385601	     -0.00885022	     -8.13464707	    -10.76718437	    -11.79883609	    -23.59056152	     13.77610893	      1.01063770	     11.94678289	     16.42727161	     10.75767058	    -20.84995162	     -5.89067758	     -5.53783500	      4.81408573	     42.16823694	    -17.13132598	    -12.88578899	     34.77247274
      2.12000000	      3.25387972	     10.22650371	     -4.92866539	     -0.63313141	      0.97392126	     -0.00941544	     -7.98595255	    -10.96407394	    -11.62275271	    -24.39233638	     13.23012336	      0.66881802	     13.01393171	     16.43853920	     10.88906191	    -20.44770965	     -6.33840106	     -5.84849378	      4.03092975	     42.41688792	    -17.12219484	    -13.00434154	     34.65267499
      2.12500000	      3.22636776	     10.32458280	     -4.91811193	     -0.62795177	      0.97399673	     -0.00997423	     -7.73166533	    -11.18020573	    -11.37595457	    -25.33503390	     12.63595376	      0.23998048	     14.32782969	     16.46980368	     11.02070168	    -20.05428115	     -6.80095545	     -6.09452284	      3.25596053	     42.66968668	    -17.09579049	    -13.13507147	     34.58685164
      2.13000000	      3.21084758	     10.41862769	     -4.93027576	     -0.62281697	      0.97412272	     -0.01051674	     -7.40824801	    -11.40395451	    -11.06591661	    -26.38981869	     11.94639551	     -0.22981602	     15.85089254	     16.49473985	     11.14021872	    -19.70184216	     -7.27899999	     -6.28243973	      2.51090244	     42.87373532	    -17.08480142	    -13.26633627	     34.56223833
      2.13500000	      3.25120411	     10.51576217	     -4.97964354	     -0.61767728	      0.97436783	     -0.01099300	     -7.07249052	    -11.64269269	    -10.70339963	    -27.53063440	     11.11533604	     -0.79680970	     17.72386166	     16.45667682	     11.25529408	    -19.42900467	     -7.76045308	     -6.38877809	      1.87733634	     42.99567303	    -17.12521127	    -13.41382626	     34.63907485
      2.14000000	      3.17024373	     10.61430884	     -4.98854575	     -0.61264640	      0.97443938	     -0.01159716	     -6.50180193	    -11.89418363	    -10.33528758	    -28.85781053	     10.39633182	     -1.19244995	     18.77778005	     16.57969422	     11.36690891	    -19.07525471	     -8.30169984	     -6.43911359	      1.12304685	     42.93129134	    -17.04896237	    -13.53974532	     34.57135482
      2.14500000	      3.09421702	     10.72374846	     -5.04151977	     -0.60765151	      0.97453458	     -0.01214120	     -5.84494815	    -12.16223910	     -9.87904658	    -30.28355909	      9.49710199	     -1.72068481	     20.45379266	     16.70079520	     11.47596157	    -18.78971495	     -8.84445961	     -6.41976563	      0.46093056	     42.80078527	    -16.96781079	    -13.68837359	     34.60155118
      2.15000000	      3.10357978	     10.84985417	     -5.10167173	     -0.60261544	      0.97475949	     -0.01266866	     -5.23994552	    -12.45906142	     -9.44367303	    -31.75025516	      8.49924342	     -2.29340863	     22.30162301	     16.73057499	     11.61153133	    -18.52988048	     -9.40187255	     -6.30814476	     -0.14147583	     42.53580015	    -16.97064234	    -13.86134577	     34.72478118
      2.15500000	      3.07401041	     10.96898399	     -5.13452170	     -0.59764508	      0.97492111	     -0.01332999	     -4.52095159	    -12.76444254	     -9.02460962	    -33.33385919	      7.60845993	     -2.60346585	     22.79221114	     16.80883370	     11.75757772	    -18.18021706	     -9.96352331	     -6.22517003	     -0.95311309	     42.34699365	    -16.94137526	    -14.00508363	     34.78066987
      2.16000000	      2.91639583	     11.13683189	     -5.21208430	     -0.59276723	      0.97485837	     -0.01383396	     -3.53967604	    -13.09691081	     -8.46265935	    -35.03702590	      6.48007660	     -3.21602807	     25.05206184	     17.05057706	     11.89592376	    -18.02666871	    -10.57275725	     -5.95491525	     -1.29108886	     41.78969587	    -16.75664326	    -14.22141220	     34.82433171
      2.16500000	      2.79080896	     11.27070255	     -5.28621936	     -0.58794865	      0.97484716	     -0.01444662	     -2.54796806	    -13.40521615	     -7.89789103	    -36.78875871	      5.45496350	     -3.50998233	     25.91183711	     17.25151364	     12.02851981	    -17.78290196	    -11.15979095	     -5.75331509	     -1.94349969	     41.44734137	    -16.61569030	    -14.38437623	     34.84099819
      2.17000000	      2.66599469	     11.44886586	     -5.36403618	     -0.58312432	      0.97479385	     -0.01502636	     -1.50665902	    -13.75288445	     -7.32922366	    -38.57374021	      4.35417231	     -3.90274958	     27.05213147	     17.44161702	     12.20415538	    -17.59711128	    -11.72469875	     -5.47520492	     -2.41648737	     40.94962045	    -16.46441610	    -14.60040386	     34.90835335
      2.17500000	      2.56860263	     11.64167101	     -5.44194606	     -0.57829136	      0.97476724	     -0.01561955	     -0.46548308	    -14.11282345	     -6.76095244	    -40.36018590	      3.21945350	     -4.26465362	     28.15619087	     17.58115588	     12.40667974	    -17.42726411	    -12.24939701	     -5.16996341	     -2.83438279	     40.37834297	    -16.33637206	    -14.82969806	     34.98267342
      2.18000000	      2.47624172	     11.83526984	     -5.52560069	     -0.57348054	      0.97471244	     -0.01621228	      0.60341359	    -14.46007935	     -6.16777808	    -42.15446461	      2.17399444	     -4.57391205	     28.85366095	     17.70177978	     12.61810319	    -17.25380849	    -12.74604291	     -4.82090286	     -3.29973896	     39.91564121	    -16.20503304	    -15.05848844	     35.10865091
      2.18500000	      2.40957940	     12.04538885	     -5.60895599	     -0.56865141	      0.97471099	     -0.01680041	      1.65773245	    -14.81939724	     -5.58920074	    -43.90903843	      1.06623140	     -4.84127600	     29.38167218	     17.75648680	     12.85687110	    -17.14091556	    -13.16264685	     -4.55543503	     -3.68373138	     39.46225347	    -16.09610516	    -15.30456106	     35.24641102
      2.19000000	      2.25323919	     12.26024066	     -5.63435968	     -0.56388028	      0.97454668	     -0.01741065	      2.82121321	    -15.15514884	     -5.02193364	    -45.65508701	      0.01393467	     -5.06517092	     30.40802155	     17.90404757	     13.08803889	    -17.05954331	    -13.59715695	     -4.12873860	     -3.73590072	     38.59001172	    -15.90600582	    -15.54281587	     35.15012056
      2.19500000	      2.24816365	     12.48322668	     -5.73257474	     -0.55902835	      0.97461570	     -0.01798857	      3.82334070	    -15.50311579	     -4.42558276	    -47.32471864	     -0.90720624	     -5.24784136	     30.64830192	     17.83150450	     13.36437803	    -16.98268944	    -13.89304356	     -3.83708793	     -4.11306998	     38.22458599	    -15.84586787	    -15.80089184	     35.34944951
